<mxfile host="65bd71144e">
    <diagram id="YyXostV-z3Rey35scTOr" name="Страница 1">
        <mxGraphModel dx="489" dy="443" grid="0" gridSize="10" guides="1" tooltips="1" connect="1" arrows="1" fold="1" page="1" pageScale="1" pageWidth="827" pageHeight="1169" background="none" math="0" shadow="0">
            <root>
                <mxCell id="0"/>
                <mxCell id="1" parent="0"/>
                <mxCell id="4" value="" style="edgeStyle=none;html=1;" edge="1" parent="1" source="2">
                    <mxGeometry relative="1" as="geometry">
                        <mxPoint x="265" y="140" as="targetPoint"/>
                    </mxGeometry>
                </mxCell>
                <mxCell id="6" style="edgeStyle=none;html=1;" edge="1" parent="1" source="2" target="5">
                    <mxGeometry relative="1" as="geometry"/>
                </mxCell>
                <mxCell id="2" value="start" style="rounded=1;whiteSpace=wrap;html=1;" vertex="1" parent="1">
                    <mxGeometry x="205" y="40" width="120" height="60" as="geometry"/>
                </mxCell>
                <mxCell id="15" value="" style="edgeStyle=none;html=1;fontFamily=Times New Roman;fontSize=6;fontColor=#FFFFFF;" edge="1" parent="1" source="5" target="7">
                    <mxGeometry relative="1" as="geometry"/>
                </mxCell>
                <mxCell id="5" value="&lt;div style=&quot;line-height: 18px&quot;&gt;&lt;p class=&quot;p1&quot; style=&quot;margin: 0px ; font-stretch: normal ; line-height: normal&quot;&gt;&lt;font color=&quot;#ffffff&quot; style=&quot;font-size: 9px&quot;&gt;string[] Array = new string[] {};&lt;/font&gt;&lt;/p&gt;&lt;div style=&quot;line-height: 18px ; font-size: 8px&quot;&gt;&lt;font color=&quot;#ffffff&quot; style=&quot;font-size: 8px&quot;&gt;int lenArray = 0;&lt;/font&gt;&lt;/div&gt;&lt;/div&gt;" style="shape=parallelogram;perimeter=parallelogramPerimeter;whiteSpace=wrap;html=1;fixedSize=1;" vertex="1" parent="1">
                    <mxGeometry x="185" y="140" width="160" height="60" as="geometry"/>
                </mxCell>
                <mxCell id="16" value="" style="edgeStyle=none;html=1;fontFamily=Times New Roman;fontSize=6;fontColor=#FFFFFF;" edge="1" parent="1" source="7" target="8">
                    <mxGeometry relative="1" as="geometry"/>
                </mxCell>
                <mxCell id="7" value="&lt;div style=&quot;line-height: 18px&quot;&gt;&lt;font face=&quot;Helvetica&quot; style=&quot;font-size: 10px&quot;&gt;i &amp;lt;= Array.Length - 1; i++&lt;/font&gt;&lt;/div&gt;" style="shape=hexagon;perimeter=hexagonPerimeter2;whiteSpace=wrap;html=1;fixedSize=1;fontFamily=Times New Roman;fontSize=9;fontColor=#FFFFFF;size=30;" vertex="1" parent="1">
                    <mxGeometry x="200" y="220" width="130" height="80" as="geometry"/>
                </mxCell>
                <mxCell id="17" value="" style="edgeStyle=none;html=1;fontFamily=Times New Roman;fontSize=11;fontColor=#FFFFFF;" edge="1" parent="1" source="8" target="10">
                    <mxGeometry relative="1" as="geometry"/>
                </mxCell>
                <mxCell id="8" value="&lt;div style=&quot;line-height: 18px&quot;&gt;&lt;font style=&quot;font-size: 9px&quot; face=&quot;Helvetica&quot;&gt;Array[i].Length &amp;lt;= 3&lt;/font&gt;&lt;/div&gt;" style="rhombus;whiteSpace=wrap;html=1;fontFamily=Times New Roman;fontSize=9;fontColor=#FFFFFF;strokeColor=#FFFFFF;" vertex="1" parent="1">
                    <mxGeometry x="210" y="330" width="110" height="80" as="geometry"/>
                </mxCell>
                <mxCell id="9" value="&lt;div style=&quot;font-size: 11px ; line-height: 18px&quot;&gt;&lt;div style=&quot;line-height: 18px&quot;&gt;&lt;font face=&quot;Helvetica&quot;&gt;int lenArray ++&lt;/font&gt;&lt;/div&gt;&lt;/div&gt;" style="rounded=0;whiteSpace=wrap;html=1;fontFamily=Times New Roman;fontSize=9;fontColor=#FFFFFF;" vertex="1" parent="1">
                    <mxGeometry x="205" y="430" width="120" height="60" as="geometry"/>
                </mxCell>
                <mxCell id="18" value="" style="edgeStyle=none;html=1;fontFamily=Times New Roman;fontSize=9;fontColor=#FFFFFF;" edge="1" parent="1" source="10" target="11">
                    <mxGeometry relative="1" as="geometry"/>
                </mxCell>
                <mxCell id="10" value="&lt;div style=&quot;line-height: 18px ; font-size: 8px&quot;&gt;&lt;div&gt;&lt;font face=&quot;Helvetica&quot; style=&quot;font-size: 8px&quot;&gt;string[] newArray = new string[lenArray];&lt;/font&gt;&lt;/div&gt;&lt;div&gt;&lt;font face=&quot;Helvetica&quot; style=&quot;font-size: 8px&quot;&gt;int index = 0;&lt;/font&gt;&lt;/div&gt;&lt;/div&gt;" style="shape=parallelogram;perimeter=parallelogramPerimeter;whiteSpace=wrap;html=1;fixedSize=1;fontFamily=Times New Roman;fontSize=9;fontColor=#FFFFFF;" vertex="1" parent="1">
                    <mxGeometry x="175.5" y="531" width="179" height="67" as="geometry"/>
                </mxCell>
                <mxCell id="19" value="" style="edgeStyle=none;html=1;fontFamily=Times New Roman;fontSize=9;fontColor=#FFFFFF;" edge="1" parent="1" source="11" target="12">
                    <mxGeometry relative="1" as="geometry"/>
                </mxCell>
                <mxCell id="11" value="&lt;div style=&quot;font-family: &amp;#34;menlo&amp;#34; , &amp;#34;monaco&amp;#34; , &amp;#34;courier new&amp;#34; , monospace ; line-height: 18px&quot;&gt;&lt;font style=&quot;font-size: 9px&quot;&gt;int i = 0; i &amp;lt;= Array.Length - 1; i++&lt;/font&gt;&lt;/div&gt;" style="shape=hexagon;perimeter=hexagonPerimeter2;whiteSpace=wrap;html=1;fixedSize=1;fontFamily=Times New Roman;fontSize=9;fontColor=#FFFFFF;" vertex="1" parent="1">
                    <mxGeometry x="167.75" y="636" width="194.5" height="61" as="geometry"/>
                </mxCell>
                <mxCell id="20" value="" style="edgeStyle=none;html=1;fontFamily=Times New Roman;fontSize=11;fontColor=#FFFFFF;" edge="1" parent="1" source="12" target="13">
                    <mxGeometry relative="1" as="geometry"/>
                </mxCell>
                <mxCell id="12" value="&lt;div style=&quot;line-height: 18px&quot;&gt;&lt;font face=&quot;Helvetica&quot;&gt;Array[i].Length &amp;lt;= 3&lt;/font&gt;&lt;/div&gt;" style="rhombus;whiteSpace=wrap;html=1;fontFamily=Times New Roman;fontSize=9;fontColor=#FFFFFF;strokeColor=#F0F0F0;" vertex="1" parent="1">
                    <mxGeometry x="192.5" y="750" width="155" height="80" as="geometry"/>
                </mxCell>
                <mxCell id="21" style="edgeStyle=none;html=1;fontFamily=Times New Roman;fontSize=9;fontColor=#FFFFFF;" edge="1" parent="1" source="13" target="14">
                    <mxGeometry relative="1" as="geometry"/>
                </mxCell>
                <mxCell id="13" value="&lt;div style=&quot;font-size: 11px ; line-height: 18px&quot;&gt;&lt;div&gt;&lt;font face=&quot;Helvetica&quot;&gt;newArray[index] = Array[i];&lt;/font&gt;&lt;/div&gt;&lt;div&gt;&lt;font face=&quot;Helvetica&quot;&gt;        index++;&lt;/font&gt;&lt;/div&gt;&lt;/div&gt;" style="rounded=0;whiteSpace=wrap;html=1;fontFamily=Times New Roman;fontSize=9;fontColor=#FFFFFF;" vertex="1" parent="1">
                    <mxGeometry x="180" y="860" width="180" height="60" as="geometry"/>
                </mxCell>
                <mxCell id="14" value="&lt;div style=&quot;line-height: 18px&quot;&gt;&lt;div&gt;&lt;font face=&quot;Helvetica&quot;&gt;PrintArray(Array);&lt;/font&gt;&lt;/div&gt;&lt;div&gt;&lt;font face=&quot;Helvetica&quot;&gt;Console.Write(&quot;→ &quot;);&lt;/font&gt;&lt;/div&gt;&lt;div&gt;&lt;font face=&quot;Helvetica&quot;&gt;PrintArray(newArray);&lt;/font&gt;&lt;/div&gt;&lt;div&gt;&lt;font face=&quot;Helvetica&quot;&gt;END&lt;/font&gt;&lt;/div&gt;&lt;/div&gt;" style="shape=document;whiteSpace=wrap;html=1;boundedLbl=1;fontFamily=Times New Roman;fontSize=9;fontColor=#FFFFFF;" vertex="1" parent="1">
                    <mxGeometry x="185" y="960" width="170" height="110" as="geometry"/>
                </mxCell>
            </root>
        </mxGraphModel>
    </diagram>
</mxfile>